<svg viewBox="20 75 320 195" xmlns="http://www.w3.org/2000/svg" role="img" aria-label="ALGORIX">
  <g transform="translate(38, 80) scale(1.42)">
    <rect x="26" y="0" width="20" height="20" rx="2" fill="#ffcc00"/>
    <rect x="46" y="0" width="20" height="20" rx="2" fill="#ffcc00"/>
    <rect x="14" y="22" width="20" height="20" rx="2" fill="#ffb300"/>
    <rect x="58" y="22" width="20" height="20" rx="2" fill="#ffb300"/>
    <rect x="2" y="44" width="20" height="20" rx="2" fill="#ff8c00"/>
    <rect x="70" y="44" width="20" height="20" rx="2" fill="#ff8c00"/>
    <rect x="2" y="66" width="20" height="20" rx="2" fill="#ff6b35"/>
    <rect x="22" y="66" width="20" height="20" rx="2" fill="#ff8c00"/>
    <rect x="42" y="66" width="20" height="20" rx="2" fill="#ff8c00"/>
    <rect x="62" y="66" width="20" height="20" rx="2" fill="#ff6b35"/>
    <rect x="2" y="88" width="20" height="20" rx="2" fill="#ff3d00"/>
    <rect x="70" y="88" width="20" height="20" rx="2" fill="#ff3d00"/>
    <rect x="2" y="110" width="20" height="20" rx="2" fill="#ff3366" opacity="0.8"/>
    <rect x="70" y="110" width="20" height="20" rx="2" fill="#ff3366" opacity="0.8"/>
    <circle cx="36" cy="0" r="5" fill="#ffffff"/>
    <rect x="114" y="0" width="20" height="20" rx="2" fill="#00d4ff"/>
    <rect x="170" y="0" width="20" height="20" rx="2" fill="#00d4ff"/>
    <rect x="124" y="22" width="20" height="20" rx="2" fill="#00c4ef" opacity="0.9"/>
    <rect x="160" y="22" width="20" height="20" rx="2" fill="#00c4ef" opacity="0.9"/>
    <rect x="134" y="44" width="20" height="20" rx="2" fill="#00b4df" opacity="0.8"/>
    <rect x="150" y="44" width="20" height="20" rx="2" fill="#00b4df" opacity="0.8"/>
    <rect x="138" y="66" width="28" height="20" rx="2" fill="#ffffff"/>
    <rect x="124" y="88" width="20" height="20" rx="2" fill="#00c4ef" opacity="0.9"/>
    <rect x="160" y="88" width="20" height="20" rx="2" fill="#00c4ef" opacity="0.9"/>
    <rect x="114" y="110" width="20" height="20" rx="2" fill="#00d4ff" opacity="0.7"/>
    <rect x="170" y="110" width="20" height="20" rx="2" fill="#00d4ff" opacity="0.7"/>
    <rect x="-10" y="10" width="8" height="8" fill="#ff6b35" opacity="0.5"/>
    <rect x="96" y="0" width="10" height="4" fill="#ff3366" opacity="0.6"/>
    <rect x="92" y="22" width="6" height="6" fill="#ffcc00" opacity="0.3"/>
    <rect x="198" y="8" width="8" height="4" fill="#4d9fff" opacity="0.5"/>
    <rect x="200" y="44" width="6" height="8" fill="#00d4ff" opacity="0.3"/>
    <rect x="104" y="14" width="6" height="6" fill="#00d4ff" opacity="0.4"/>
    <rect x="98" y="66" width="4" height="4" fill="#ff6b35" opacity="0.4"/>
    <rect x="196" y="100" width="8" height="4" fill="#4d9fff" opacity="0.3"/>
  </g>
</svg>
